<mxfile host="app.diagrams.net" modified="2023-10-27T03:47:39.265Z" agent="Mozilla/5.0 (X11; Linux x86_64) AppleWebKit/537.36 (KHTML, like Gecko) SamsungBrowser/22.0 Chrome/111.0.5563.116 Safari/537.36" etag="AqTji9iY7zYeqlP8pasJ" version="22.0.8" type="github">
  <diagram name="Page-1" id="0T_R0v5OD0aSI6soXl4J">
    <mxGraphModel dx="2244" dy="747" grid="1" gridSize="10" guides="1" tooltips="1" connect="1" arrows="1" fold="1" page="1" pageScale="1" pageWidth="850" pageHeight="1100" math="0" shadow="0">
      <root>
        <mxCell id="0" />
        <mxCell id="1" parent="0" />
        <mxCell id="LoG1Wkr_C3Wr618eXh1c-29" value="&lt;b&gt;ADL Framework&lt;/b&gt;" style="rounded=0;whiteSpace=wrap;html=1;fillColor=#ffff88;strokeColor=#36393d;verticalAlign=top;" vertex="1" parent="1">
          <mxGeometry x="130" y="70" width="510" height="320" as="geometry" />
        </mxCell>
        <mxCell id="LoG1Wkr_C3Wr618eXh1c-12" style="edgeStyle=orthogonalEdgeStyle;rounded=0;orthogonalLoop=1;jettySize=auto;html=1;exitX=1;exitY=0.5;exitDx=0;exitDy=0;" edge="1" parent="1" source="LoG1Wkr_C3Wr618eXh1c-1" target="LoG1Wkr_C3Wr618eXh1c-2">
          <mxGeometry relative="1" as="geometry" />
        </mxCell>
        <mxCell id="LoG1Wkr_C3Wr618eXh1c-1" value="ADL Application" style="rounded=0;whiteSpace=wrap;html=1;" vertex="1" parent="1">
          <mxGeometry x="-20" y="200" width="120" height="60" as="geometry" />
        </mxCell>
        <mxCell id="LoG1Wkr_C3Wr618eXh1c-13" style="rounded=0;orthogonalLoop=1;jettySize=auto;html=1;" edge="1" parent="1" source="LoG1Wkr_C3Wr618eXh1c-2" target="LoG1Wkr_C3Wr618eXh1c-9">
          <mxGeometry relative="1" as="geometry" />
        </mxCell>
        <mxCell id="LoG1Wkr_C3Wr618eXh1c-26" style="edgeStyle=none;rounded=0;orthogonalLoop=1;jettySize=auto;html=1;" edge="1" parent="1" source="LoG1Wkr_C3Wr618eXh1c-2" target="LoG1Wkr_C3Wr618eXh1c-8">
          <mxGeometry relative="1" as="geometry" />
        </mxCell>
        <mxCell id="LoG1Wkr_C3Wr618eXh1c-2" value="App API" style="shape=umlBoundary;whiteSpace=wrap;html=1;" vertex="1" parent="1">
          <mxGeometry x="160" y="190" width="100" height="80" as="geometry" />
        </mxCell>
        <mxCell id="LoG1Wkr_C3Wr618eXh1c-3" value="Diagram" style="ellipse;shape=umlEntity;whiteSpace=wrap;html=1;" vertex="1" parent="1">
          <mxGeometry x="425" y="260" width="80" height="80" as="geometry" />
        </mxCell>
        <mxCell id="LoG1Wkr_C3Wr618eXh1c-5" value="Graphic API Provider" style="rounded=0;whiteSpace=wrap;html=1;" vertex="1" parent="1">
          <mxGeometry x="660" y="200" width="120" height="60" as="geometry" />
        </mxCell>
        <mxCell id="LoG1Wkr_C3Wr618eXh1c-16" style="rounded=0;orthogonalLoop=1;jettySize=auto;html=1;" edge="1" parent="1" source="LoG1Wkr_C3Wr618eXh1c-6" target="LoG1Wkr_C3Wr618eXh1c-5">
          <mxGeometry relative="1" as="geometry" />
        </mxCell>
        <mxCell id="LoG1Wkr_C3Wr618eXh1c-6" value="Graphic API" style="shape=umlBoundary;whiteSpace=wrap;html=1;" vertex="1" parent="1">
          <mxGeometry x="500" y="190" width="100" height="80" as="geometry" />
        </mxCell>
        <mxCell id="LoG1Wkr_C3Wr618eXh1c-20" style="edgeStyle=none;rounded=0;orthogonalLoop=1;jettySize=auto;html=1;" edge="1" parent="1" source="LoG1Wkr_C3Wr618eXh1c-8" target="LoG1Wkr_C3Wr618eXh1c-3">
          <mxGeometry relative="1" as="geometry" />
        </mxCell>
        <mxCell id="LoG1Wkr_C3Wr618eXh1c-21" style="edgeStyle=none;rounded=0;orthogonalLoop=1;jettySize=auto;html=1;" edge="1" parent="1" source="LoG1Wkr_C3Wr618eXh1c-8" target="LoG1Wkr_C3Wr618eXh1c-10">
          <mxGeometry relative="1" as="geometry" />
        </mxCell>
        <mxCell id="LoG1Wkr_C3Wr618eXh1c-8" value="Bitmap Controller" style="ellipse;shape=umlControl;whiteSpace=wrap;html=1;" vertex="1" parent="1">
          <mxGeometry x="310" y="200" width="80" height="90" as="geometry" />
        </mxCell>
        <mxCell id="LoG1Wkr_C3Wr618eXh1c-14" style="rounded=0;orthogonalLoop=1;jettySize=auto;html=1;" edge="1" parent="1" source="LoG1Wkr_C3Wr618eXh1c-9" target="LoG1Wkr_C3Wr618eXh1c-3">
          <mxGeometry relative="1" as="geometry" />
        </mxCell>
        <mxCell id="LoG1Wkr_C3Wr618eXh1c-15" style="rounded=0;orthogonalLoop=1;jettySize=auto;html=1;" edge="1" parent="1" source="LoG1Wkr_C3Wr618eXh1c-9" target="LoG1Wkr_C3Wr618eXh1c-6">
          <mxGeometry relative="1" as="geometry" />
        </mxCell>
        <mxCell id="LoG1Wkr_C3Wr618eXh1c-27" style="edgeStyle=none;rounded=0;orthogonalLoop=1;jettySize=auto;html=1;" edge="1" parent="1" source="LoG1Wkr_C3Wr618eXh1c-9" target="LoG1Wkr_C3Wr618eXh1c-11">
          <mxGeometry relative="1" as="geometry" />
        </mxCell>
        <mxCell id="LoG1Wkr_C3Wr618eXh1c-9" value="Diagram Controller" style="ellipse;shape=umlControl;whiteSpace=wrap;html=1;" vertex="1" parent="1">
          <mxGeometry x="310" y="105" width="80" height="90" as="geometry" />
        </mxCell>
        <mxCell id="LoG1Wkr_C3Wr618eXh1c-10" value="Bitmap" style="ellipse;shape=umlEntity;whiteSpace=wrap;html=1;" vertex="1" parent="1">
          <mxGeometry x="220" y="290" width="80" height="80" as="geometry" />
        </mxCell>
        <mxCell id="LoG1Wkr_C3Wr618eXh1c-11" value="Element" style="ellipse;shape=umlEntity;whiteSpace=wrap;html=1;" vertex="1" parent="1">
          <mxGeometry x="470" y="105" width="80" height="80" as="geometry" />
        </mxCell>
      </root>
    </mxGraphModel>
  </diagram>
</mxfile>
